<?xml version="1.0" standalone="no"?>
<!DOCTYPE svg PUBLIC "-//W3C//DTD SVG 20010904//EN"
 "http://www.w3.org/TR/2001/REC-SVG-20010904/DTD/svg10.dtd">
<svg version="1.0" xmlns="http://www.w3.org/2000/svg"
 width="500.000000pt" height="500.000000pt" viewBox="0 0 500.000000 500.000000"
 preserveAspectRatio="xMidYMid meet">

<g transform="translate(0.000000,500.000000) scale(0.100000,-0.100000)"
fill="#000000" stroke="none">
<path d="M2382 4664 c-63 -31 -134 -108 -150 -162 -16 -52 -15 -148 1 -195 66
-188 306 -246 457 -111 67 61 90 115 90 212 0 94 -20 144 -86 207 -80 78 -212
99 -312 49z"/>
<path d="M2030 4261 c-196 -63 -396 -258 -491 -481 -63 -148 -82 -246 -83
-432 -1 -137 2 -170 14 -182 8 -8 50 -19 93 -25 43 -6 97 -20 120 -30 70 -33
143 -105 179 -178 29 -59 32 -75 32 -152 0 -92 -25 -171 -65 -207 -11 -10 -19
-30 -19 -49 0 -26 11 -42 54 -83 107 -102 255 -181 411 -222 73 -19 116 -24
225 -24 76 0 159 6 190 13 177 42 322 116 449 229 44 39 54 54 54 80 0 18 -8
42 -20 55 -37 42 -56 100 -61 184 -2 45 0 95 6 111 l10 29 -82 -47 c-44 -27
-107 -67 -138 -89 -143 -104 -236 -135 -403 -136 -139 0 -186 11 -300 69 -214
108 -369 368 -351 587 19 229 164 438 370 533 75 35 205 66 276 66 43 0 141
-18 206 -38 123 -38 259 -141 333 -252 37 -55 81 -141 81 -159 0 -6 5 -13 12
-17 8 -5 10 11 5 64 -9 112 -57 203 -197 375 -37 46 -58 62 -116 86 -77 33
-241 77 -320 87 -146 18 -242 78 -320 200 -40 62 -58 66 -154 35z m-102 -419
c-1 -4 -22 -39 -45 -77 -47 -77 -82 -169 -102 -260 -23 -109 -37 -150 -51
-150 -33 0 -34 123 -3 235 31 113 72 177 147 231 38 28 61 37 54 21z m932
-1306 c0 -8 -16 -28 -35 -44 -54 -48 -123 -75 -237 -93 -114 -19 -241 11 -298
68 -13 13 -11 14 20 7 19 -4 87 -7 150 -6 118 1 246 27 315 65 38 20 85 22 85
3z"/>
<path d="M1462 3041 c-150 -52 -225 -232 -156 -376 30 -64 97 -127 152 -143
136 -41 272 16 339 141 27 50 25 190 -4 242 -32 62 -103 121 -164 139 -67 20
-101 20 -167 -3z"/>
<path d="M3140 2008 c-14 -6 -39 -17 -57 -24 -43 -19 -117 -104 -131 -152 -27
-89 -7 -177 53 -237 53 -53 94 -71 239 -107 159 -39 181 -52 192 -105 14 -72
-51 -123 -156 -123 -75 0 -132 27 -153 73 -9 19 -17 40 -17 46 0 7 -31 11 -90
11 l-90 0 0 -32 c1 -43 29 -105 70 -152 126 -143 451 -138 572 9 38 47 53 94
53 171 -1 57 -6 78 -27 115 -43 73 -106 106 -283 150 -106 26 -136 39 -164 75
-56 71 6 144 122 144 88 0 139 -29 153 -87 6 -22 10 -23 96 -23 l91 0 -7 43
c-9 54 -47 119 -91 152 -63 49 -125 65 -243 64 -59 0 -118 -5 -132 -11z"/>
<path d="M1380 1930 l0 -80 125 0 125 0 0 -365 0 -365 100 0 100 0 0 365 0
365 130 0 130 0 0 80 0 80 -355 0 -355 0 0 -80z"/>
<path d="M2210 1565 l0 -445 305 0 305 0 0 80 0 80 -205 0 -205 0 0 100 0 100
185 0 186 0 -3 83 -3 82 -182 3 -183 2 0 100 0 100 205 0 205 0 0 80 0 80
-305 0 -305 0 0 -445z"/>
</g>
</svg>
